<?xml version="1.0" standalone="no"?>
<!DOCTYPE svg PUBLIC "-//W3C//DTD SVG 20010904//EN"
 "http://www.w3.org/TR/2001/REC-SVG-20010904/DTD/svg10.dtd">
<svg version="1.0" xmlns="http://www.w3.org/2000/svg"
 width="700.000000pt" height="700.000000pt" viewBox="0 0 700.000000 700.000000"
 preserveAspectRatio="xMidYMid meet">
<metadata>
Created by potrace 1.11, written by Peter Selinger 2001-2013
</metadata>
<g transform="translate(0.000000,700.000000) scale(0.100000,-0.100000)"
fill="#000000" stroke="none">
<path d="M1927 5924 c-1 -1 -28 -5 -59 -8 -116 -14 -294 -72 -401 -133 -255
-143 -431 -385 -508 -695 -19 -78 -23 -119 -23 -248 1 -85 4 -171 8 -190 42
-209 154 -410 317 -570 50 -50 206 -238 369 -446 155 -197 289 -368 298 -379
9 -11 63 -81 121 -155 99 -127 187 -239 306 -390 111 -141 166 -211 505 -645
193 -247 359 -459 368 -470 9 -11 64 -81 122 -155 58 -74 140 -180 184 -235
43 -55 89 -113 102 -130 13 -16 92 -118 176 -225 84 -107 162 -207 173 -221
129 -169 180 -228 188 -220 7 7 -49 98 -169 276 -98 146 -242 358 -319 472
-77 115 -208 307 -289 428 -82 121 -201 297 -264 390 -64 94 -167 247 -230
340 -64 94 -167 247 -230 340 -64 94 -152 224 -197 290 -45 66 -144 212 -220
325 -76 113 -184 273 -240 355 -56 83 -105 155 -108 162 -5 8 15 12 75 13 122
1 118 1 183 11 94 16 96 16 180 44 142 47 275 127 386 233 l46 44 324 -207
c178 -114 356 -227 394 -252 39 -24 140 -89 225 -143 85 -54 200 -128 255
-163 55 -35 345 -221 645 -412 300 -191 565 -361 590 -376 25 -16 214 -137
420 -268 443 -283 537 -342 610 -389 30 -20 80 -51 110 -70 30 -20 91 -59 135
-87 129 -82 131 -84 144 -75 9 5 3 14 -21 31 -18 13 -38 28 -45 34 -22 18 -37
30 -93 70 -105 75 -552 407 -560 415 -3 3 -27 21 -55 39 -27 19 -52 38 -55 41
-3 3 -57 44 -120 90 -63 46 -230 169 -370 274 -140 104 -329 243 -419 310 -89
67 -254 189 -365 271 -111 83 -235 174 -276 204 -41 30 -77 57 -80 60 -3 4
-18 15 -33 24 -16 10 -36 25 -45 32 -9 8 -87 66 -172 129 -85 63 -191 141
-235 174 -153 114 -590 438 -656 486 l-67 48 22 57 c20 49 39 114 52 176 7 34
18 167 18 225 0 116 -23 248 -61 347 -5 12 -1 14 18 8 26 -7 1006 -327 1149
-375 47 -15 294 -96 550 -180 256 -83 510 -167 565 -185 55 -18 330 -108 610
-200 281 -92 535 -175 565 -185 333 -110 373 -121 382 -112 12 12 21 8 -252
118 -102 41 -204 84 -227 94 -24 11 -48 20 -54 20 -6 0 -23 6 -37 14 -15 8
-135 58 -267 111 -187 76 -898 364 -1470 597 -27 11 -63 26 -80 33 -45 19
-453 185 -505 205 -53 21 -311 126 -355 145 -16 7 -97 40 -180 74 -650 263
-826 336 -935 389 -138 67 -260 107 -366 118 -63 6 -173 11 -177 8z"/>
</g>
</svg>
