<?xml version="1.0" encoding="UTF-8" standalone="no"?>
<!-- Created with Inkscape (http://www.inkscape.org/) -->

<svg
   xmlns:dc="http://purl.org/dc/elements/1.1/"
   xmlns:cc="http://creativecommons.org/ns#"
   xmlns:rdf="http://www.w3.org/1999/02/22-rdf-syntax-ns#"
   xmlns:svg="http://www.w3.org/2000/svg"
   xmlns="http://www.w3.org/2000/svg"
   xmlns:sodipodi="http://sodipodi.sourceforge.net/DTD/sodipodi-0.dtd"
   xmlns:inkscape="http://www.inkscape.org/namespaces/inkscape"
   height="260"
   width="260"
   viewBox="0 0 260 260"
   id="svg3358"
   version="1.1"
   inkscape:version="0.91 r13725"
   sodipodi:docname="logo-mono.svg">
  <defs
     id="defs3364">
    <inkscape:perspective
       sodipodi:type="inkscape:persp3d"
       inkscape:vp_x="0 : 130 : 1"
       inkscape:vp_y="0 : 1000 : 0"
       inkscape:vp_z="260 : 130 : 1"
       inkscape:persp3d-origin="130 : 86.666667 : 1"
       id="perspective3416" />
  </defs>
  <sodipodi:namedview
     pagecolor="#ffffff"
     bordercolor="#666666"
     borderopacity="1"
     objecttolerance="10"
     gridtolerance="10"
     guidetolerance="10"
     inkscape:pageopacity="0"
     inkscape:pageshadow="2"
     inkscape:window-width="1366"
     inkscape:window-height="709"
     id="namedview3362"
     showgrid="false"
     units="px"
     inkscape:zoom="1.7940592"
     inkscape:cx="78.12362"
     inkscape:cy="119.92237"
     inkscape:window-x="0"
     inkscape:window-y="0"
     inkscape:window-maximized="1"
     inkscape:current-layer="svg3358" />
  <metadata
     id="metadata3360">
    <rdf:RDF>
      <cc:Work
         rdf:about="">
        <dc:format>image/svg+xml</dc:format>
        <dc:type
           rdf:resource="http://purl.org/dc/dcmitype/StillImage" />
        <dc:title></dc:title>
      </cc:Work>
    </rdf:RDF>
  </metadata>
  <path
     style="opacity:1;fill:#ffffff;fill-opacity:1;stroke:#000000;stroke-width:1.17262983;stroke-miterlimit:4;stroke-dasharray:none;stroke-opacity:1"
     d="m 48.234707,14.892789 c -0.558796,-0.0091 -1.116744,-0.0066 -1.676493,0.0069 -4.444174,0.106438 -8.907874,0.930094 -13.244762,2.574286 -28.4682615,8.396428 -40.768856,46.716663 -22.522737,70.119592 2.434837,3.656272 5.401847,6.768443 8.728304,9.360423 L 143.00474,254.51464 42.557072,106.08079 c 14.46243,1.59128 29.678115,-3.22622 39.390746,-14.522753 L 249.88353,198.72998 89.498914,79.886712 c 2.876895,-6.297804 4.33377,-13.243938 4.145434,-20.172899 0.0781,-5.93546 -1.195368,-11.598576 -3.476672,-16.790134 L 258.8317,98.165536 71.97588,22.157597 C 64.860114,17.686468 56.616672,15.030497 48.234707,14.892789 Z M 36.9825,39.627948 A 20.262165,20.262165 0 0 1 57.244718,59.890166 20.262165,20.262165 0 0 1 36.9825,80.152384 20.262165,20.262165 0 0 1 16.720282,59.890166 20.262165,20.262165 0 0 1 36.9825,39.627948 Z"
     id="path3144"
     inkscape:connector-curvature="0" />
</svg>
