<?xml version="1.0" standalone="no"?>
<!DOCTYPE svg PUBLIC "-//W3C//DTD SVG 20010904//EN"
 "http://www.w3.org/TR/2001/REC-SVG-20010904/DTD/svg10.dtd">
<svg version="1.0" xmlns="http://www.w3.org/2000/svg"
 width="700.000000pt" height="700.000000pt" viewBox="0 0 700.000000 700.000000"
 preserveAspectRatio="xMidYMid meet">
<metadata>
Created by potrace 1.11, written by Peter Selinger 2001-2013
</metadata>
<g transform="translate(0.000000,700.000000) scale(0.100000,-0.100000)"
fill="#000000" stroke="none">
<path d="M1135 6604 c-115 -18 -129 -21 -245 -61 -318 -107 -556 -314 -701
-608 -62 -128 -85 -190 -113 -315 -35 -150 -40 -364 -13 -500 39 -192 104
-337 226 -502 44 -58 107 -132 142 -164 34 -33 72 -68 83 -79 12 -12 113 -139
226 -284 113 -145 250 -320 305 -390 55 -69 154 -195 220 -280 264 -338 313
-401 397 -506 47 -61 172 -220 278 -355 105 -135 203 -260 218 -279 15 -19 54
-69 87 -111 33 -43 139 -177 235 -300 96 -122 225 -286 285 -364 61 -77 139
-177 173 -221 35 -44 74 -93 87 -110 171 -218 242 -309 305 -390 41 -53 80
-102 85 -109 12 -12 250 -316 353 -450 34 -44 67 -82 71 -84 33 -11 7 41 -102
200 -68 101 -188 280 -268 398 -79 118 -146 217 -149 220 -3 3 -69 100 -147
215 -77 116 -164 244 -192 285 -28 41 -56 82 -61 90 -33 49 -515 761 -677
1000 -72 107 -192 285 -267 395 -74 110 -184 272 -243 360 -60 88 -189 279
-287 425 -99 146 -199 293 -223 328 -24 34 -43 62 -41 63 2 0 66 2 143 3 77 2
147 6 155 9 8 3 33 9 55 12 118 17 268 72 395 146 93 53 122 75 217 162 34 31
65 57 68 57 4 0 25 -13 48 -29 23 -15 182 -117 352 -226 171 -108 348 -222
395 -252 364 -234 466 -299 545 -348 50 -31 230 -145 400 -255 460 -294 584
-374 604 -385 11 -6 36 -22 57 -37 22 -14 113 -73 204 -130 91 -58 361 -230
600 -383 995 -635 1278 -815 1295 -821 75 -29 -102 116 -440 360 -22 16 -414
307 -510 379 -33 25 -143 106 -245 181 -102 76 -196 145 -210 156 -40 30 -375
278 -870 644 -146 108 -276 205 -290 216 -45 33 -360 267 -585 433 -121 89
-227 167 -235 174 -8 6 -49 36 -90 67 -41 30 -129 95 -195 144 -66 49 -228
169 -360 267 -132 98 -244 181 -248 185 -4 4 3 36 17 71 31 78 52 162 72 276
10 59 11 236 2 323 -7 70 -35 192 -65 283 -5 17 -3 17 33 3 22 -8 262 -87 534
-176 272 -89 610 -199 750 -245 140 -46 381 -125 535 -175 154 -51 312 -103
350 -115 39 -13 293 -96 565 -185 272 -89 527 -172 565 -185 39 -13 286 -94
550 -180 264 -86 510 -167 547 -180 37 -12 69 -20 73 -17 9 9 6 32 -5 32 -9 0
-214 82 -315 125 -16 8 -91 38 -165 68 -128 52 -254 103 -615 250 -88 36 -223
91 -300 122 -462 188 -804 327 -975 397 -107 44 -213 87 -235 95 -22 7 -53 20
-70 27 -29 14 -570 234 -1130 461 -154 63 -356 145 -450 183 -93 38 -244 100
-335 136 -91 37 -174 71 -185 76 -11 5 -70 30 -132 54 -62 25 -134 59 -160 74
-226 132 -521 192 -758 156z m1 -707 c197 -60 338 -211 378 -407 65 -321 -187
-629 -514 -628 -100 0 -146 10 -235 53 -273 130 -380 482 -224 741 122 202
380 306 595 241z"/>
</g>
</svg>
